<?xml version="1.0" encoding="utf-8"?>
<!-- Generator: Adobe Illustrator 14.0.0, SVG Export Plug-In  -->
<!DOCTYPE svg PUBLIC "-//W3C//DTD SVG 1.1//EN" "http://www.w3.org/Graphics/SVG/1.1/DTD/svg11.dtd" [
	<!ENTITY ns_flows "http://ns.adobe.com/Flows/1.0/">
]>
<svg version="1.1"
	 xmlns="http://www.w3.org/2000/svg" xmlns:xlink="http://www.w3.org/1999/xlink" xmlns:a="http://ns.adobe.com/AdobeSVGViewerExtensions/3.0/"
	 x="0px" y="0px" width="300px" height="400px" viewBox="-29.069 -32.897 300 400" enable-background="new -29.069 -32.897 300 400"
	 xml:space="preserve">
<defs>
</defs>
<path fill="#FFFFFF" d="M24.373,328.103v-11.179c0-3.188-0.952-5.645-4.618-5.645c-4.178,0-5.277,2.896-5.277,6.524v10.299h-2.236
	v-10.922c0-3.262-0.733-5.901-4.582-5.901c-3.775,0-5.314,3.188-5.314,6.524v10.299H0.11v-14.074c0-1.466-0.11-2.969-0.11-4.436
	h2.199l0.146,3.227c1.246-2.273,3.115-3.409,5.718-3.409c3.042,0,4.801,1.1,5.938,3.958c1.283-2.748,3.335-3.958,6.341-3.958
	c5.425,0,6.268,3.556,6.268,8.101v10.592H24.373z"/>
<path fill="#FFFFFF" d="M39.508,328.506c-5.791,0-8.687-4.362-8.687-9.786c0-5.352,3.042-9.492,8.687-9.492
	c5.718,0,8.649,4.068,8.649,9.492C48.157,323.925,45.079,328.506,39.508,328.506z M39.508,311.06c-4.435,0-6.304,3.665-6.304,7.66
	c0,3.922,1.832,8.063,6.304,8.063c4.398,0,6.268-4.252,6.268-8.063C45.775,314.761,43.942,311.06,39.508,311.06z"/>
<path fill="#FFFFFF" d="M60.544,328.396c-2.749,0-4.398-1.136-5.9-3.371l-0.184,3.078h-2.199c0.11-1.832,0.146-3.701,0.146-5.534
	v-20.965h2.236v11.435c1.393-2.564,3.445-3.774,6.377-3.774c5.352,0,7.697,4.472,7.697,9.31
	C68.718,323.558,66.042,328.396,60.544,328.396z M60.728,311.022c-4.435,0-6.084,4.032-6.084,7.881c0,3.665,1.319,7.696,5.644,7.696
	c4.472,0,6.048-3.921,6.048-7.771C66.335,315.237,65.016,311.022,60.728,311.022z"/>
<path fill="#FFFFFF" d="M72.711,304.39v-2.786h2.675v2.786H72.711z M72.931,328.103v-18.51h2.235v18.51H72.931z"/>
<path fill="#FFFFFF" d="M80.736,328.103v-26.499h2.235v26.499H80.736z"/>
<path fill="#FFFFFF" d="M88.322,304.39v-2.786h2.675v2.786H88.322z M88.542,328.103v-18.51h2.235v18.51H88.542z"/>
<path fill="#FFFFFF" d="M101.405,328.249c-2.676,0-3.922-1.283-3.922-3.958v-13.048h-3.665v-1.65h3.665v-3.811l2.236-0.99v4.801
	h4.142v1.65H99.72v12.059c0,2.088,0.293,3.078,2.602,3.078c0.587,0,1.137-0.184,1.687-0.22v1.905
	C103.128,328.176,102.285,328.249,101.405,328.249z"/>
<path fill="#FFFFFF" d="M112.143,335.066h-2.272l2.933-7.073l-7.771-18.4h2.676l6.194,15.504l6.157-15.504h2.235L112.143,335.066z"
	/>
<path fill="#FFFFFF" d="M147.767,328.103l-0.184-3.078c-1.576,2.346-3.188,3.371-6.048,3.371c-5.57,0-8.026-4.729-8.026-9.749
	c0-4.765,2.529-9.383,7.844-9.383c2.932,0,4.801,1.063,6.23,3.628v-11.288h2.235v20.965c0,1.833,0,3.702,0.147,5.534H147.767z
	 M141.535,311.022c-4.324,0-5.644,4.179-5.644,7.807c0,3.85,1.575,7.771,6.047,7.771c4.325,0,5.645-4.031,5.645-7.696
	C147.583,315.091,145.934,311.022,141.535,311.022z"/>
<path fill="#FFFFFF" d="M166.384,328.103c-0.074-0.88-0.184-1.796-0.294-2.676c-1.539,2.346-3.445,3.079-6.193,3.079
	c-3.372,0-6.451-1.687-6.451-5.425c0-5.9,6.891-6.084,11.436-6.084h0.953c0.036-0.439,0.036-0.843,0.036-1.283
	c0-3.151-1.246-4.764-4.508-4.764c-2.383,0-3.995,0.77-4.288,3.408h-2.199c0.036-3.702,3.225-5.095,6.487-5.095
	c4.581,0,6.707,1.905,6.707,6.487v5.498c0,2.309,0.11,4.545,0.366,6.854H166.384z M164.074,318.573
	c-3.079,0-8.356,0.184-8.356,4.435c0,2.565,2.235,3.886,4.581,3.886c5.278,0,5.608-4.179,5.608-8.247
	C165.284,318.61,164.697,318.573,164.074,318.573z"/>
<path fill="#FFFFFF" d="M177.846,335.066h-2.272l2.933-7.073l-7.771-18.4h2.676l6.194,15.504l6.157-15.504h2.235L177.846,335.066z"
	/>
<path fill="#FFFFFF" d="M204.287,323.827c0.997-0.945,2.021-1.995,2.993-3.098c1.917-2.18,3.493-4.596,3.493-6.803
	c0-3.439-2.705-5.041-5.699-5.041c-3.282,0-5.987,1.891-6.04,5.566h2.495c0-2.205,1.392-3.65,3.467-3.65
	c1.917,0,3.256,1.287,3.256,3.336c0,0.787-0.184,1.471-0.499,2.18c-1.365,2.889-6.46,7.457-8.929,9.664v2.284h12.159v-1.917h-9.375
	C201.608,326.349,203.315,324.747,204.287,323.827z"/>
<path fill="#FFFFFF" d="M219.332,308.886c-5.068,0-6.486,5.277-6.486,9.559c0,4.385,1.024,10.11,6.355,10.11
	c5.226,0,6.46-5.673,6.46-10.032C225.661,314.19,224.479,308.886,219.332,308.886z M219.175,326.638c-3.467,0-3.86-5.174-3.86-7.852
	c0-2.836,0.341-8.036,4.018-8.036c3.545,0,3.86,5.331,3.86,8.062C223.192,321.622,222.772,326.638,219.175,326.638z"/>
<path fill="#FFFFFF" d="M226.867,312.247v2.205c1.549-0.682,2.968-1.522,4.175-2.704v16.518h2.364v-18.986h-2.075
	C229.966,310.618,228.627,311.538,226.867,312.247z"/>
<path fill="#FFFFFF" d="M240.259,309.279c-1.365,1.339-2.704,2.259-4.464,2.968v2.205c1.549-0.682,2.968-1.522,4.175-2.704v16.518
	h2.364v-18.986H240.259z"/>
<polygon fill="#BC2026" points="141.922,102.892 121.369,91.311 135.903,72.628 156.456,84.209 "/>
<path fill="#FFFFFF" d="M164.718,181.081l63.484-99.795c0.594-1.489,1.193-2.975,1.799-4.459c5.759-15.615-5.68-26.316-12.69-30.098
	c-0.318-0.172-0.671-0.48-1.015-0.553c-1.199-0.646-2.393-1.549-3.574-2.252L143.648,2.792c-0.664-0.393-1.321-0.734-1.985-1.033
	c-1.332-0.6-2.719-1.047-4.141-1.341c-8.871-1.831-18.351,2.452-23.583,10.659L23.263,153.622
	c-3.437,5.414-4.598,11.901-3.188,17.811c1.283,5.375,4.542,9.851,9.175,12.605l14.028,8.354
	c-21.154,9.935-34.324,23.833-34.324,39.195c0,30.117,50.607,54.621,112.811,54.621c62.203,0,112.81-24.504,112.81-54.621
	C234.575,208.828,205.677,189.279,164.718,181.081z M43.103,183.641c-0.133-0.079-0.263-0.165-0.388-0.257l-9.5-6.953
	c-0.002-0.001-0.004-0.004-0.006-0.005c-2.607-1.69-4.46-4.328-5.218-7.496c-0.931-3.893-0.132-8.224,2.192-11.884l90.67-142.535
	c2.959-4.639,7.92-7.518,12.95-7.518c1.795,0,3.51,0.362,5.098,1.076c0.405,0.181,0.817,0.395,1.213,0.629L209.2,49.836
	c0.298,0.177,0.58,0.372,0.859,0.573c0.022,0.016,0.048,0.025,0.07,0.041v0c0.003,0.002,0.006,0.004,0.01,0.007
	c0,0,0.001,0,0.002,0.001c0.004,0.002,0.006,0.005,0.01,0.007l4.548,3.327l4.946,3.618c0.068,0.051,0.118,0.09,0.176,0.134
	l0.01,0.007c0.044,0.032,0.087,0.065,0.13,0.099c0.003,0.002,0.005,0.004,0.008,0.006c0.006,0.005,0.014,0.011,0.02,0.015
	c0.005,0.004,0.008,0.009,0.013,0.012c0.215,0.17,0.421,0.344,0.621,0.525c0.003,0.002,0.005,0.006,0.008,0.009
	c0.004,0.003,0.009,0.007,0.013,0.011c0.005,0.005,0.011,0.008,0.016,0.013c0.184,0.169,0.361,0.347,0.531,0.526
	c0.008,0.008,0.018,0.014,0.025,0.022s0.015,0.017,0.022,0.024c0.007,0.008,0.015,0.015,0.021,0.022
	c0.007,0.007,0.011,0.015,0.018,0.022c0.06,0.063,0.115,0.13,0.173,0.195c0.043,0.048,0.086,0.095,0.128,0.143
	c0.068,0.078,0.142,0.153,0.207,0.232c0.166,0.201,0.324,0.409,0.476,0.619c0.005,0.007,0.012,0.013,0.017,0.02
	c0.004,0.005,0.007,0.011,0.011,0.016c0.001,0.001,0.001,0.001,0.002,0.002s0.001,0.002,0.002,0.003
	c0.147,0.207,0.289,0.417,0.425,0.634c0.002,0.003,0.003,0.006,0.005,0.009s0.004,0.005,0.006,0.008
	c0.148,0.236,0.286,0.477,0.418,0.723c0.004,0.006,0.005,0.014,0.009,0.02c0.002,0.004,0.006,0.007,0.008,0.012
	c0.128,0.244,0.249,0.49,0.362,0.745c0.002,0.003,0.004,0.005,0.005,0.008c0.11,0.249,0.213,0.505,0.308,0.764
	c0.006,0.016,0.015,0.03,0.021,0.045c0.004,0.011,0.007,0.022,0.011,0.033c0.003,0.009,0.008,0.018,0.011,0.026
	c0.004,0.011,0.005,0.022,0.009,0.034c0.099,0.273,0.19,0.549,0.272,0.832c0.001,0.003,0.001,0.007,0.002,0.011
	s0.003,0.006,0.004,0.01c0.096,0.336,0.176,0.677,0.248,1.026c0.001,0.006,0.001,0.012,0.002,0.018
	c0.001,0.003,0.002,0.006,0.003,0.009c0.083,0.417,0.146,0.841,0.192,1.271c0,0.005,0,0.009,0,0.014
	c0.001,0.006,0.003,0.011,0.004,0.017c0.029,0.295,0.022,0.592,0.034,0.89c0.001,0.024,0.002,0.049,0.003,0.073
	c0.003,0.084,0.008,0.167,0.01,0.251c0.02,0.199,0.028,0.4,0.023,0.603c0,0,0,0,0,0c0,0.001,0,0.001,0,0.002
	c0,0.001,0,0.003,0,0.005c-0.036,1.489-0.297,2.985-0.773,4.444c-0.002,0.007-0.003,0.013-0.005,0.02
	c-0.132,0.403-0.288,0.806-0.456,1.207c-0.014,0.034-0.028,0.067-0.042,0.101c-0.061,0.142-0.116,0.284-0.181,0.425
	c-0.001,0.002-0.001,0.004-0.002,0.005c-0.082,0.179-0.181,0.355-0.27,0.534c-0.067,0.134-0.132,0.268-0.203,0.4
	c-0.037,0.071-0.068,0.143-0.107,0.213c-0.001,0.001-0.002,0.002-0.002,0.003c-0.002,0.002-0.003,0.005-0.004,0.008
	c-0.167,0.298-0.342,0.593-0.528,0.887c-0.001,0.001-0.002,0.002-0.003,0.003v0l-90.668,142.53c0,0.001-0.001,0.002-0.002,0.003
	c-0.004,0.006-0.008,0.012-0.012,0.019c-0.002,0.003-0.004,0.007-0.006,0.01c-0.023,0.038-0.051,0.072-0.074,0.11
	c-0.008,0.011-0.014,0.025-0.021,0.036c-0.006,0.007-0.013,0.013-0.018,0.021c-0.092,0.14-0.188,0.277-0.283,0.414
	c-0.057,0.081-0.109,0.167-0.168,0.247c-0.004,0.005-0.006,0.009-0.01,0.014c-0.004,0.006-0.01,0.011-0.015,0.018
	c-0.169,0.232-0.342,0.46-0.521,0.68c-0.002,0.002-0.002,0.004-0.004,0.006c-0.002,0.003-0.005,0.006-0.007,0.008
	c-0.003,0.003-0.005,0.007-0.007,0.01c-0.004,0.004-0.008,0.008-0.012,0.012c-0.006,0.008-0.012,0.015-0.019,0.022
	c-0.041,0.051-0.085,0.099-0.126,0.148c-0.124,0.149-0.248,0.299-0.375,0.441c-0.002,0.002-0.004,0.004-0.005,0.006
	c-0.003,0.003-0.006,0.006-0.009,0.009c-0.004,0.004-0.007,0.009-0.01,0.013c-0.002,0.002-0.005,0.004-0.007,0.006
	c-0.036,0.04-0.073,0.077-0.11,0.117c-0.039,0.043-0.078,0.085-0.119,0.127c-0.099,0.106-0.197,0.216-0.299,0.319
	c-0.004,0.004-0.009,0.007-0.013,0.011c-0.009,0.009-0.015,0.018-0.023,0.026c-0.073,0.073-0.15,0.143-0.224,0.215
	c-0.049,0.047-0.097,0.093-0.146,0.139c-0.06,0.058-0.118,0.117-0.181,0.173c-0.009,0.009-0.016,0.018-0.025,0.026
	c-0.12,0.109-0.244,0.213-0.365,0.318c-0.043,0.037-0.085,0.075-0.129,0.112c-0.02,0.017-0.039,0.035-0.059,0.052
	c-0.01,0.009-0.02,0.019-0.029,0.027c-0.009,0.008-0.019,0.015-0.027,0.021c-0.006,0.005-0.012,0.011-0.018,0.016
	c-0.004,0.003-0.008,0.005-0.012,0.008c-0.186,0.153-0.375,0.304-0.564,0.449c-0.006,0.005-0.012,0.007-0.018,0.012
	s-0.012,0.011-0.019,0.016c-0.217,0.163-0.438,0.32-0.659,0.472c-0.007,0.005-0.015,0.008-0.021,0.013
	c-0.006,0.004-0.012,0.01-0.018,0.014c-0.027,0.018-0.054,0.033-0.08,0.051c-0.007,0.004-0.014,0.008-0.021,0.013
	c-0.192,0.126-0.384,0.25-0.579,0.368c-0.004,0.002-0.008,0.005-0.012,0.008c-0.047,0.028-0.094,0.052-0.141,0.079
	c-0.092,0.055-0.187,0.105-0.279,0.158c-0.14,0.078-0.277,0.161-0.418,0.234c-0.003,0.002-0.008,0.003-0.011,0.005
	c-0.05,0.026-0.101,0.048-0.149,0.072c-0.085,0.043-0.171,0.083-0.256,0.124c-0.145,0.07-0.288,0.144-0.434,0.21
	c-0.01,0.005-0.021,0.008-0.033,0.013c-0.008,0.004-0.015,0.009-0.023,0.013c-0.041,0.019-0.084,0.032-0.127,0.051
	c-0.211,0.091-0.427,0.173-0.642,0.255c-0.101,0.037-0.198,0.082-0.299,0.118c-0.007,0.002-0.013,0.003-0.02,0.005
	c-0.005,0.002-0.009,0.003-0.015,0.005c-0.008,0.003-0.016,0.008-0.025,0.011c-0.037,0.013-0.07,0.02-0.109,0.032
	c-0.387,0.132-0.779,0.244-1.174,0.342c0,0.001,0,0.001,0,0.001c-0.026,0.007-0.051,0.018-0.077,0.024
	c-0.007,0.002-0.015,0.002-0.021,0.004c-0.008,0.002-0.016,0.005-0.023,0.007c-0.025,0.006-0.052,0.008-0.077,0.014
	c-0.472,0.11-0.948,0.198-1.427,0.259c-0.066,0.008-0.131,0.014-0.197,0.021c-0.495,0.056-0.992,0.092-1.49,0.092
	c-0.001,0-0.003,0-0.004,0s-0.002,0-0.003,0c-1.765,0-3.452-0.354-5.018-1.047c-0.024-0.011-0.049-0.018-0.073-0.028h0
	c-0.001-0.001-0.003-0.001-0.004-0.002c-0.394-0.176-0.803-0.389-1.2-0.625c-0.005-0.003-0.011-0.005-0.016-0.008L43.103,183.641z
	 M121.765,253.312c24.74,0,44.867-9.745,44.867-21.726c0-7.964-8.901-14.937-22.135-18.718l2.682-4.216
	c16.865,4.391,28.333,13.013,28.333,22.934c0,14.373-24.062,26.024-53.748,26.024s-53.747-11.651-53.747-26.024
	c0-6.427,4.821-12.305,12.794-16.845l5.731,3.412c-6.031,3.699-9.644,8.364-9.644,13.433
	C76.898,243.566,97.026,253.312,121.765,253.312z M99.332,231.586c0-1.296,0.471-2.538,1.33-3.689
	c0.17,0.171,0.345,0.339,0.539,0.491c0.71,0.562,5.605,4.264,12.308,5.65c2.5,0.515,5.257,0.709,8.136,0.295
	c5.723-0.824,10.815-3.981,14.832-9.111c0.239-0.282,0.467-0.574,0.682-0.879c0.064-0.085,0.132-0.161,0.194-0.249
	c0.026-0.035,0.04-0.079,0.066-0.114c0.027-0.044,0.06-0.085,0.09-0.129c4.129,1.97,6.689,4.707,6.689,7.735
	c0,5.998-10.043,10.862-22.433,10.862S99.332,237.584,99.332,231.586z M56.501,231.586c0,17.426,29.277,31.6,65.263,31.6
	c35.988,0,65.264-14.174,65.264-31.6c0-12.411-14.859-23.169-36.412-28.335l4.709-7.404c28.031,6.182,47.527,19.854,47.527,35.739
	c0,21.684-36.303,39.263-81.087,39.263s-81.089-17.579-81.089-39.263c0-10.576,8.653-20.168,22.699-27.228l10.08,6.002
	C62.926,215.974,56.501,223.424,56.501,231.586z M121.765,284.85c-60.757,0-110.007-23.849-110.007-53.263
	c0-14.963,12.747-28.482,33.262-38.158l13.917,8.287c-15.62,7.701-25.271,18.25-25.271,29.87c0,23.521,39.521,42.658,88.099,42.658
	s88.098-19.137,88.098-42.658c0-17.382-21.587-32.367-52.459-39.007l6.493-10.209c39.848,8.008,67.874,27.026,67.874,49.217
	C231.771,261.001,182.522,284.85,121.765,284.85z"/>
<path fill="#FFFFFF" d="M115.133,220.962c0.224,0.101,0.453,0.186,0.684,0.262c0.079,0.026,0.159,0.047,0.239,0.07
	c0.157,0.046,0.314,0.088,0.473,0.123c0.09,0.021,0.181,0.038,0.271,0.055c0.158,0.029,0.317,0.052,0.477,0.071
	c0.085,0.01,0.171,0.021,0.257,0.029c0.194,0.017,0.389,0.024,0.585,0.026c0.051,0.001,0.102,0.005,0.153,0.005
	c0.249-0.002,0.498-0.015,0.748-0.039c0.063-0.006,0.127-0.017,0.19-0.024c0.186-0.022,0.373-0.049,0.559-0.082
	c0.091-0.017,0.182-0.037,0.273-0.057c0.084-0.018,0.169-0.031,0.253-0.052c0.054-0.013,0.106-0.033,0.159-0.048
	c0.193-0.05,0.384-0.108,0.576-0.171c0.064-0.021,0.129-0.035,0.193-0.058c0.042-0.015,0.082-0.033,0.123-0.049
	c0.125-0.046,0.25-0.097,0.375-0.147c0.079-0.033,0.16-0.06,0.239-0.095c0.064-0.028,0.127-0.062,0.191-0.092
	c0.08-0.038,0.161-0.076,0.242-0.116c0.063-0.031,0.129-0.06,0.191-0.092c0.139-0.073,0.276-0.152,0.413-0.23
	c0.025-0.015,0.051-0.028,0.076-0.043c0.022-0.014,0.047-0.025,0.069-0.039c0.172-0.104,0.342-0.211,0.512-0.326
	c0.035-0.024,0.071-0.052,0.107-0.077s0.072-0.051,0.107-0.076c0.088-0.062,0.175-0.122,0.262-0.187
	c0.117-0.09,0.236-0.186,0.354-0.281c0.02-0.017,0.039-0.031,0.059-0.048c0.014-0.01,0.025-0.019,0.038-0.029
	c0.146-0.121,0.286-0.247,0.429-0.376c0.049-0.045,0.096-0.093,0.143-0.138c0.041-0.039,0.082-0.078,0.122-0.118
	c0.05-0.048,0.1-0.094,0.149-0.144c0.138-0.139,0.271-0.282,0.401-0.426c0.136-0.154,0.267-0.308,0.396-0.467
	c0.064-0.078,0.123-0.161,0.184-0.241c0.037-0.047,0.074-0.095,0.109-0.144c0.032-0.043,0.066-0.083,0.098-0.127
	c0.137-0.188,0.27-0.383,0.397-0.581c0.005-0.008,0.011-0.019,0.017-0.027l90.669-142.531c0.135-0.214,0.263-0.428,0.384-0.645
	c0.881-1.577,1.801-2.932,2.016-4.863v-0.715c0.029-2.719-0.679-4.57-2.625-6.291l-9.502-6.951l-0.002,0.002
	c-0.367-0.33-0.764-0.628-1.191-0.883L137.69,12.345c-0.256-0.152-0.52-0.288-0.787-0.409c-1.041-0.468-2.176-0.706-3.371-0.706
	c-3.609,0-7.212,2.134-9.402,5.569L33.46,159.332c-1.717,2.704-2.318,5.856-1.651,8.648c0.529,2.212,1.833,4.034,3.672,5.126
	l69.071,41.131c0.258,0.154,0.523,0.291,0.792,0.411c0.539,0.242,1.103,0.42,1.687,0.538l7.382,5.399
	C114.648,220.726,114.888,220.85,115.133,220.962z M105.916,213.368c-0.221-0.098-0.436-0.209-0.646-0.335l-69.072-41.132
	c-1.533-0.911-2.579-2.379-3.025-4.248c-0.58-2.426-0.044-5.185,1.47-7.57l90.67-142.531c1.934-3.035,5.084-4.92,8.219-4.92
	c0.996,0,1.937,0.196,2.796,0.582c0.22,0.099,0.437,0.211,0.646,0.336l69.083,41.136c1.51,0.898,2.582,2.409,3.021,4.253
	c0.576,2.426,0.037,5.182-1.479,7.56L116.934,209.03c-1.936,3.036-5.084,4.922-8.216,4.922
	C107.722,213.952,106.78,213.756,105.916,213.368z"/>
<path fill="#FFFFFF" d="M122.532,183.272c0.232,0,0.459-0.115,0.592-0.324l70.672-111.092c0.103-0.16,0.135-0.354,0.092-0.539
	c-0.045-0.185-0.161-0.343-0.324-0.44l-65.971-39.285c-0.326-0.194-0.746-0.094-0.95,0.226L55.971,142.91
	c-0.102,0.16-0.135,0.354-0.091,0.539c0.044,0.185,0.161,0.343,0.323,0.44l65.971,39.286
	C122.286,183.241,122.411,183.272,122.532,183.272z M127.46,33.146l64.766,38.567l-69.918,109.908l-64.766-38.568L127.46,33.146z"/>
<path fill="#FFFFFF" d="M185.804,74.834l-55.817-33.591L91.936,99.995l55.819,33.589L185.804,74.834z M157.924,108.511
	l-12.778-7.689l8.977-13.86l12.778,7.689L157.924,108.511z M140.778,98.193l-12.792-7.697l8.977-13.86l12.792,7.698L140.778,98.193z
	 M178.665,76.485l-8.994,13.888l-12.777-7.689l8.995-13.888L178.665,76.485z M161.521,66.167l-8.994,13.888l-12.793-7.698
	l8.995-13.888L161.521,66.167z M131.583,48.15l12.777,7.689l-8.994,13.889l-12.778-7.689L131.583,48.15z M119.817,66.318
	l12.778,7.689l-8.977,13.86l-12.778-7.689L119.817,66.318z M99.074,98.344l8.994-13.887l12.779,7.689l-8.994,13.888L99.074,98.344z
	 M116.221,108.663l8.995-13.888l12.791,7.697l-8.994,13.888L116.221,108.663z M133.38,118.988l8.995-13.888l12.778,7.689
	l-8.995,13.888L133.38,118.988z"/>
</svg>
