<?xml version="1.0" encoding="utf-8"?>
<!-- Generator: Adobe Illustrator 14.0.0, SVG Export Plug-In . SVG Version: 6.00 Build 43363)  -->
<!DOCTYPE svg PUBLIC "-//W3C//DTD SVG 1.1//EN" "http://www.w3.org/Graphics/SVG/1.1/DTD/svg11.dtd" [
	<!ENTITY ns_flows "http://ns.adobe.com/Flows/1.0/">
	<!ENTITY ns_extend "http://ns.adobe.com/Extensibility/1.0/">
	<!ENTITY ns_ai "http://ns.adobe.com/AdobeIllustrator/10.0/">
	<!ENTITY ns_graphs "http://ns.adobe.com/Graphs/1.0/">
]>
<svg version="1.1" id="Layer_1" xmlns:x="&ns_extend;" xmlns:i="&ns_ai;" xmlns:graph="&ns_graphs;"
	 xmlns="http://www.w3.org/2000/svg" xmlns:xlink="http://www.w3.org/1999/xlink" xmlns:a="http://ns.adobe.com/AdobeSVGViewerExtensions/3.0/"
	 x="0px" y="0px" width="143.333px" height="34.167px" viewBox="221.333 51.833 143.333 34.167"
	 enable-background="new 221.333 51.833 143.333 34.167" xml:space="preserve">
<metadata><?xpacket begin="﻿" id="W5M0MpCehiHzreSzNTczkc9d"?>
<x:xmpmeta xmlns:x="adobe:ns:meta/" x:xmptk="Adobe XMP Core 4.2.2-c063 53.352624, 2008/07/30-18:05:41        ">
   <rdf:RDF xmlns:rdf="http://www.w3.org/1999/02/22-rdf-syntax-ns#">
      <rdf:Description rdf:about=""
            xmlns:xmp="http://ns.adobe.com/xap/1.0/"
            xmlns:xmpGImg="http://ns.adobe.com/xap/1.0/g/img/">
         <xmp:CreatorTool>Adobe Illustrator CS4</xmp:CreatorTool>
         <xmp:MetadataDate>2011-04-19T09:52:39-05:00</xmp:MetadataDate>
         <xmp:ModifyDate>2011-04-19T09:52:39-05:00</xmp:ModifyDate>
         <xmp:CreateDate>2011-04-19T09:52:39-05:00</xmp:CreateDate>
         <xmp:Thumbnails>
            <rdf:Alt>
               <rdf:li rdf:parseType="Resource">
                  <xmpGImg:width>256</xmpGImg:width>
                  <xmpGImg:height>60</xmpGImg:height>
                  <xmpGImg:format>JPEG</xmpGImg:format>
                  <xmpGImg:image>/9j/4AAQSkZJRgABAgEASABIAAD/7QAsUGhvdG9zaG9wIDMuMAA4QklNA+0AAAAAABAASAAAAAEA&#xA;AQBIAAAAAQAB/+4ADkFkb2JlAGTAAAAAAf/bAIQABgQEBAUEBgUFBgkGBQYJCwgGBggLDAoKCwoK&#xA;DBAMDAwMDAwQDA4PEA8ODBMTFBQTExwbGxscHx8fHx8fHx8fHwEHBwcNDA0YEBAYGhURFRofHx8f&#xA;Hx8fHx8fHx8fHx8fHx8fHx8fHx8fHx8fHx8fHx8fHx8fHx8fHx8fHx8fHx8f/8AAEQgAPAEAAwER&#xA;AAIRAQMRAf/EAaIAAAAHAQEBAQEAAAAAAAAAAAQFAwIGAQAHCAkKCwEAAgIDAQEBAQEAAAAAAAAA&#xA;AQACAwQFBgcICQoLEAACAQMDAgQCBgcDBAIGAnMBAgMRBAAFIRIxQVEGE2EicYEUMpGhBxWxQiPB&#xA;UtHhMxZi8CRygvElQzRTkqKyY3PCNUQnk6OzNhdUZHTD0uIIJoMJChgZhJRFRqS0VtNVKBry4/PE&#xA;1OT0ZXWFlaW1xdXl9WZ2hpamtsbW5vY3R1dnd4eXp7fH1+f3OEhYaHiImKi4yNjo+Ck5SVlpeYmZ&#xA;qbnJ2en5KjpKWmp6ipqqusra6voRAAICAQIDBQUEBQYECAMDbQEAAhEDBCESMUEFURNhIgZxgZEy&#xA;obHwFMHR4SNCFVJicvEzJDRDghaSUyWiY7LCB3PSNeJEgxdUkwgJChgZJjZFGidkdFU38qOzwygp&#xA;0+PzhJSktMTU5PRldYWVpbXF1eX1RlZmdoaWprbG1ub2R1dnd4eXp7fH1+f3OEhYaHiImKi4yNjo&#xA;+DlJWWl5iZmpucnZ6fkqOkpaanqKmqq6ytrq+v/aAAwDAQACEQMRAD8A9O1e5LvIxjtFJCqDxLhd&#xA;izN/L4Adtz1pl307D6nG3nZO0Pv8z5d3286Sn/Evk4TfVRLDQmhIiPp1/wBbjx+nMr8pqK4qPz3d&#xA;d/KehEuC4/Lb51Sb8jbFHRudo5CkVrw5Gisp/lqaU7ZifVz+p2N8FEfQfs93ki8qcl2KuxV2KuxV&#xA;2KuxV2KuxVCuZLmZ4lYpBGaSOpoztSvEEbgDuR3+WWioi+pcckzkQNoj7fL8foSi48x+ULWZrSSS&#xA;LkDxkCxl1B78mCkH3zKjpNRIcQB+brsnaWixy4CY+e1/oTSK3gljSS2uHFq4qEiYcGB6cTQso/1C&#xA;MxjIg0R6vP8AH3uwjjjIAxkeA9x2/WPgQlU3mLyfBO1q8sJatJCIy61/ymCkHMqOl1EhxAH5uvn2&#xA;jooS4CY+e1j50mfNYIlurZxJZEcnQHkoSn24z4Afs9KdN+uNXEeGX1fjm53EIDjgbh+jvj+r5b8x&#xA;+UOWhKvcySEsUtYyUAU8S7KaMSw3Cg7U/hlu0R/ScezMneoD7e/4fjkk7+YvJiXH1cyQFiaFhFVK&#xA;/wCuF4/TmWNLqCLo/N1su0dCJcNx+W3zqk3LC2RZom52hoXWtQqn9tD/ACjuOlOnvi1xbH6nYk8A&#xA;4o7w/G48v0cvMZlLkuxV2KuxV2KuxV2KuxV2KuxV2Ksa81TzQ+TnKEo7Rwo3Y0YqGH0jbNjoog6j&#xA;4l0fas5R0RrY1Efc8uzpXgXqvlAtdeU7eN2JJSWIt4DmyinyWmcxrvTnJHkX0Hsc+Jo4g9xH2lOq&#xA;3lRtHTaoq309sw/T5u0ufk20l2D8MUZHiZGB/wCIHECPefl+1TKfQD5/sWDUIQeMqSRSf77KFifk&#xA;V5BvoOHwj03DH8wORBB936ubYv7atGLRjpykR41r/rOAMfDKfHj1294I+9EZW3KD3tsrmPkXddmW&#xA;NWk4n/K4BqfTkxjNW1HPEGuZ8gT9zcd5byOEDFXP2UdWRjTrQOFJ+jE4yN1jmiTXXzsferZBtQ/1&#xA;+2pVS0ino0aPIv8AwSBhlnhSafzEOln3An7ggpHum0G7eCN47lkuWhQgq/Is5WgNDv2y4CIygHl6&#xA;f0OLIzOnkYgiVTrv608ezrHzVnOhT3kHkHUJGYqoMi27HqFYKpp/sifpzS6mMZaqI91vWaDJOHZ0&#xA;yT319n6bYNm6eTen/l/IZfLgR91SWRADvsaNT/hs5vtMVmvyD3vs9Li0tHoSE80qb1NJs5mP24I3&#xA;Yn3QHfMLNGskh5l2uknxYYSPWIP2JR5juZIPJssiNxkeGJSfH1Cof7wxzL0kBLUAeZ+x1vaWQw0J&#xA;I5mI+2reV50z5+9Q8nSev5RRJDzCiWMg+FTt9xzmteKz7eT3vY0uLRAHf6gySFi0SMdyygk/MZr5&#xA;Ci7uBsArsDJp5I41LyMEQdWY0A+k4QCeSJSAFnZRF7bNTgxkB/ajVnX71BGS8MtfjxPLf3An7nG+&#xA;tFFZJPSHjKDH/wATC4+HLpv9qDngOZr37ferqysAykFTuCNwchTaDbsUrJriCEAzSLGDsC5C1+/J&#xA;RiTyDCeSMfqICkb637CQjxWKRh94XJeGfL5hh48fP/Sy/UuF5Ce0g2rUxyAfTVcHhny+YSM0fP5H&#xA;9SpHLFKgeN1dD0ZSCNvcZEgjmzjISFg2GN+df+USk/54/wDElzYdn/34+Lpe2/8AEz/m/eHl+dK8&#xA;CmVl5k1uxt1t7W6aKFSSqAKaVNT1BzHyaTHM3IWXOwdpZ8UeGEqj8Ff/ABl5m/5bm/4FP+acr/IY&#xA;f5v3t38s6r+efs/Uqwed/MkUoc3XqqOsciIVPsaAH7jgl2dhIqqZ4+3NVE3xX7wGc3Hm+xt9CttU&#xA;kQlrofurdTuXGzCvgp75pI6GUspgOnV6vJ2xjhp45iPq5Dz6/JCaJ58stTu1s57c2skp4xEsJEYn&#xA;9kmi0J+WXajs2WOPEDdOPoe3seefBKPCTy3sfoTv0rmKT6rCCLaTdZAf7pR9pB89uHhv2AGYVgji&#xA;PP7/AMdXa8Eongj9J6/ze8fq7t+gASvXvNmn6EUtI4TPPx5eip4qqn+ZqNuflmTptFPP6iaDga/t&#xA;bHpKgBxS7u73lfoPmbT9fSSAxGGdAHaFjXav2kYUOx77EYNTo54KN2GWg7Tx6wGNVIdP0gphHHcz&#xA;u1vdLW3h25mlJ6/ZqPBR9rbdvbMcmIFx5n7Px08nMjGUjwz+mP8Asv7OvefJItX/ADBsrK8e1t7c&#xA;3XpHjJJzCLUbELs1aZnYOy5TjxE8Nup1ftDjxTMIx465m6+XNPdG1mz1eyF1bEgV4yRt9pWG9DmD&#xA;qNPLFLhk7bRa2Gohxw/sSPUo/wAvv0i31z0frZb95xaTjy78vTPCvjXM3EdXwem+H4fp3dVqY9m+&#xA;L6+Hj+P21sjfNK26+UroWwQQemnpCOnDjzWnGm1Mp0RPji+duV2qIjRy4a4aFVy5h5RnUPnj0HyL&#xA;rGlWeiNFdXcUMvrO3B2CmhC775ou0sE55LiCRT2XYOsw48FTkIniPM+5O49S8sEemmoRKgFAguCi&#xA;gdKAcwPozCOHNzMT/pf2O0jqdIdhONf16/ShPO4jHlWURU9MGLhx3HHmKUy3s6/HF+bj9uV+TNcv&#xA;T97y7OleBeieSNZ0m00JYbm7ihlEjko7AGhO2xzQdo6fJLLcQSKe07D1uHHpxGcoxNnmU5i1TyxQ&#xA;JFfQJSgAWfh8hswzDlhzdYn5OzhqtJyE4j/Or9KPK3a0NvKskbdpd6A9GVlpy+R6+Iym49R8vx+O&#xA;5y6mPpNjz/Zz+PPvCE1LUNH0oLcahMDNuYy/xSH/AFFH2foHzy3FiyZdoDZx9TqMOn9WQ+rp1PwH&#xA;RIZ/zL05WIgtJZB2LlU/VyzNj2RPqQ6nJ7TYh9MJH5D9a+1/MnSpGAuLeaGv7Q4uB89wfwwT7JyD&#xA;kQWWL2lwn6oyj9qfWcthexG60qdRU7sm6E/8WR7b/c3vmDkjKB4Zj8eR/AdvhljyjjwyHw5fEf2F&#xA;WFxdzEwrEYJF/vZTug/4xk/bJ7bbd/DI8ERvd/jr3fj3tniTl6a4T1PT4d/6OvcgNS13QtEJ9d+V&#xA;0wqyJ8czDr8RPT2qcuw6bLm5fT9jianX6fS/UfX85fj3pJJ+ZtmD+7sZGHizqv6g2Zo7Il1kHVS9&#xA;p4dIH5ui/M2zMgEtjIiH7TK4Yj6CF/XieyJVtILH2nhe8CB72Si4t5LdNVs2DRsoeQr0kjH2qj+Z&#xA;R079s13CQeCXP7i7zxIyiM0OXM+Y/WP2JV51/wCUSk/54/8AElzJ7P8A78fFwO2/8TP+b94eX50r&#xA;wKZ2flrXL22S5tbRpYJK8HDKAaEqepHcZjZNXigeGRoufh7M1GWInCNxPuVv8G+Zv+WFv+CT/mrI&#xA;fn8P87723+RtV/MP2frVrfyL5lldQ1sIUY7yPIlB8wpLfhkZdpYQOd/AtmPsHVSIuNDzI/XaN882&#xA;Cada6RYxsWSCKQcjtViVLGnucp7OynJKcj1Icrt3TjDDFjHKIP6GPaOSNXsSDQi4iIP+zGZ+f+7l&#xA;7i6bRn99D+tH73tWce+oPJPOZJ8zX1TX4lH3RrnU9n/3Mfx1fOu2j/hU/h9wRHkFmHmWAA0DJIG9&#xA;xxJ/WMh2mP3J+Dd2ASNUPcfuepMaKTStBWg6nOZD35LwxmZmLMasxqT7nO1AfJybNsw8lXEkWha+&#xA;0bFXih9RGHY+nJQj/gc1PaEQcuO+p/SHpexMhjp89cxG/sl+ph2bZ5lmmizST+QNThclxAzBB4LR&#xA;Hp9Bqc0+oiI6qBHX9r1GimZ9nZInfhv9BYXm4eXdirsVZNpVxcz+TNZtnNYbdoHhrvQtJVgP+BzX&#xA;ZogaiBHM39zvdJklLQ5on6Y8NfPf7mM5sXROxV2Ks88ma1NaeW7+e5q9vZN+4qe7D+7B/wBan35o&#xA;9fpxLNER5y5/reu7F1sselnKe8Ycv1fP72F39/dX93JdXLl5pDUnsPADwAzcYscYREY8nl9Rnnlm&#xA;ZzNkplovlLV9Wi9aBVit60E0pIBI68QAScx9RrseI0dz5OdouyM2oHFGhHvLWteU9W0iMTXCrJbk&#xA;09aIllBPStQCPuw6fW48poc/NGt7JzaccUqMe8ITRtYu9JvUurdum0sf7Lr3U5bqMEcseEuPotZP&#xA;T5BOPxHeHpPmDzLFZaCl/bHlJdqotK+LivIj/JH45zul0hnl4Jfw83uO0O0xi04yQ5z+n4/qeVSy&#xA;yzSNLKxeRyWd2NSSe5OdPGIAoPn05mRJJslpUdzRVLHwAriTSBEnkqx2d3K4SOCR3PRVUk/gMick&#xA;RzIbI4ZyNCJPwepaHYXGl+WEt7jecI5Mf+VISVT51anzzmtTlGTNY5fq6vf6HTywaQRl9VHb39EL&#xA;5qXn5JLLuFjt2+Y5IP45ZojWp+J/S4/aovQfCP3h5jnSPBvUfIF1HL5dihVgXt3dXXuOTFx9/LOa&#xA;7TgRmJ73vvZ/KJaYRB3iT99skzXu7dirAvzOU+rp7disoB9wU/rm87HO0vh+l5H2oG+M/wBb9DEN&#xA;NkSLUbWRzxRJo2Zj2AYEnNrmBMCB3F5vTSEcsSeQkPve2ddxnHPqTyLze6t5kvypqOYFfcKAfxzq&#xA;tCKwxfOe2CDqp13/AKFfyK6r5mtuRA5LIBXxKHbIdpD9yfg29gkDVRvz+56pI4RGdtlUEknwG+cy&#xA;BZfQJGhbwzO0fJ2V+VVK+XPMLgkcoVX7lf8A5qzV60/vsY8/1PQ9kitLnP8AR/RJimbR55nXku3N&#xA;z5V1aACrSmRV+ZiFPxzSdoS4c8D3V971vYuPj0eWPff+5YLm7eSZJ5R8tafraXAnnkimgK0VCu6t&#xA;XfcHuM12u1c8JFAEF3nZHZmLVCXESJR7qZGv5a6MPtXNwfChQf8AGhzAPa+Tuj9v63dD2ZwdZT+z&#xA;9SZXuhWVn5YvrGzj4qYZH33ZnC1BJ8fhzHx6mU80ZSPUOdn0GPFpJ44D+E/EvJs6h87ZR5S8radr&#xA;VrPJPPJHNDJxKR8acSAQdwe9c1uu1k8MgABRd/2R2Vi1UCZSIkD0rkn6flro4Px3NwR4AoP+NTmC&#xA;e18ndH7f1u3Hszg6yn9n6lvnDT7bTPKQtLJOEImTn3JrUlmPckgY6DKcmfilzpHbOnjg0fBjFR4g&#xA;86zoHikRFqOoQoEiuZY0HRUdlH3A5XLFA7kBuhqMkRUZSA95WyXl3IpWSeR1bqrMxB+84RjiOQCJ&#xA;ZpyFGRPxUQCTQbk9Bk2pkPmNLmDRNDtbgFJEildo2FCObgrUfLMDSESyZJDlYd12kJQwYYS2IjI1&#xA;7yktjAtxe28DEhZZERiOtGYDMzJLhiT3B1WCAnkjE9SA9kRYLKOK1tbc8Qp4RRcQAq0BPxFf5hnI&#xA;m5kykX00COICEI/AV095C8Tzkf7yyA9qmP8Ag5wcI7x9v6mQyS/mn7P1tJBPJIslyVCoaxwIaqD/&#xA;ADMxAqfDsPfY4mQAofNAhKRuXTkP0n8fNDPZxXenXOly/CArQj2QisTDxoKfSDloyGMxMe/9bQcI&#xA;yYpYT7vh/Cfx1DyK+srixu5bW4XhNE3Fh+oj2PbOqx5BOIkORfOc+CWKZhIbh1nf3tlJ6lpO8DnY&#xA;lGK1HgadccmOMxUha4dRkxG4SMT5I/8AxX5i/wCW+X7x/TKPyWH+aHL/AJW1P88qkHnLzJC4YXjS&#xA;AGpSQKwPsaiuRloMJH0s8fbWqib4797KvMkLeYPKltqdun76IesYxvt9mUD5EV+jNZpJeBnMDyO3&#xA;6noO04HWaOOWI3G9fZL8eTzvN+8WnFt5t8wW1oLWK7IiUcUqqsyjwDEE5iT0OKUuIjd2WLtfUwhw&#xA;CW3w+9KGZmYsxLMxqzHcknucywKdcSSbLcckkUiyRsUkQhkdTQgjcEHAQCKKYyMTY2ITW982a/eW&#xA;ptZ7omFhRwqqpYeDFQCcxseixQlxAbuwzdranLDglLb4C0ozKda9I0vRn03yTfrOtLi4t5ppFI3W&#xA;sZ4qfkB9+c9mz+JqY1yBA+17fS6I4NBPi+qUZE/6XZ5vnQvEPRfy0/45V1/xn/40XOf7X/vB7ntf&#xA;Zn+5l/W/QGG+ZNMbTdZubfjSIsXgPYxvutPl0zb6TN4mMHr1eZ7S0pwZ5R6XY9xQNtd3VrKJraV4&#xA;ZRsHjYqaHtUZfOEZCpCw4mLLPGeKBMT5Jkvm3zGpBF/JUeNCPuIzHOhw/wA0OcO19UP4yzryZ5gn&#xA;1mynjvKNcW5AkcAAMrg0JA2r8JzSdoaUYZAx5F6zsXtCWpxyE/qj9oLzzWtMk03U57NwaRsfTJ/a&#xA;Q7qfuzf6fMMkBIPGa3SnBllA9Dt7uiHtL28s5fVtZngkpQtGxUkeBpk544zFSFtOHPPGbgTE+SYp&#xA;5u8yIwYX8lR48SPuIIzHOhwn+EOaO19UD9ZZfpt9N5r8tXlpOFW8jovMbKzD4o29qlaHNVlxjS5o&#xA;yH0/i3pNNnl2hpZwl9Y/tDzyWKSGV4pVKSISrodiCNiDm/jIEWHi5wMSQRRCc6F5nbS4zDJZQ3cN&#xA;ajmoVxX/AC6Nt8xmHqdH4hsSMS7PQdqHAOEwjOP2/NH3nnxZIytrpVvA5/beklPkOKZRj7No+qZP&#xA;2Obm7fsVDFGJ89/0BKbTzHrMV8lxHIGk5D92EXi1T9niB39syp6TGY0Q67D2lnjkEgd+6gn35mBv&#xA;rlixFAYmH0hhX9eYXZH0y97t/aceuB8ixfSP+OrZf8Z4v+JjNln/ALuXuLoNH/fQ/rD73spUfW42&#xA;7iNxT5lP6ZyN+k/jvfTSPWD5H9CtkGx2KqFxC/NZ4f75BQqdg6fyn9YP9TlkZCqPJpyQN8UeY+0d&#xA;36v2lKNY0DS9fh5PWG7i+H1QKSIf5XU9R/mDmVg1U8B74l1+s7Pw6yO+0x16jyI/HkWG3f5e6/Cx&#xA;9AR3KfslHCmnuH4/rzbQ7UxHnYeZzezupifTUvj+tDf4H80f8sX/ACVh/wCa8t/lHB/O+w/qcf8A&#xA;kLV/zP8AZR/Wq23kHzJLIFlhSBCd3eRCAPkhY5CfaeEDY38GzH2BqpGiBEe8fot6HaR2Wj2NtZcz&#xA;wReKtQkmm7O1K8Vr1J2GaGZllkZPZ4o49NjjjvYfgk9w8+QY/r3kG2vZGutNkW3lk+Jom/umJ7gj&#xA;da/Tmdpu0zAcMxY+10+v9n45Tx4jwk9On7GON5B8yh+IgRh/OJEp+JB/DNiO08Pf9jpD2Bqr+kfM&#xA;Jzo/5cUcS6rKGUf8e8JO/wDrPt+H35h5+1umMfEuz0fs3veY/AfpP6vmp6v+W8wcyaXMGQ7+hMaM&#xA;Pkw6/TksHawqpj4hhq/ZuV3hO3cf1pUnkHzKzUMCIK05NIlPnsScyj2nh7/sdfHsDVE/SB8QyfQP&#xA;I9npji91CRZ7iP4lHSKMj9rfrTxOa3VdoyyemAoH5l33Z/YUMB8TIeKQ+QZA0lrfwz2jcgssbKQw&#xA;Klo3HEsteo3/AM9swAJQIl3F3JlDNGUD1HzB2sfj9Dz65/LzXUuWjg9OWCvwTFgu3+Up3+7N9DtT&#xA;EY2bBeNyezuoE6jRj32zTQ9Lj0DSFt6+tO7FmC7c5WFAq19h3+ZzT6jMc+S+Q/Q9PodKNJh4fqkT&#xA;8z3D8ebtV0jTdftvSuFaK5h6HYSxk9iNwVNPke2OHPPAbG4PyK6vR4tZGpbSHzH7PsPRhl7+XeuQ&#xA;sfqxjuk/ZIbg30h6D8c2+PtXEedxeYz+zuoifTUx8vv/AFoRfI3mgsAbMKD+0ZYqD7mOWntHD/O+&#xA;wuOOwtWf4Ptj+tm3lnQk8vadNJdSAzSkPOy1IAXZVXux3PbeuafWanx5gRGw5PU9l6AaPETM+o8/&#xA;0DzVdW0XS/MVsC/KK5i2WSnGWMnfi6Ht7H6Mhg1E8B23B+RbNXosOtjvtIfMeRH48mG3n5ea9C5+&#xA;r+ndJ+yVYIae4eg/HNvj7UxHnYeZzezuoifTUh76+9Dp5F8zs1DaBB/M0sdPwY5Ye0sPf9haY9g6&#xA;s/w18Y/rZx5d0aLy9pT/AFiQNM5DzuoJFeiogpVvbapOaXVag557Dbo9X2doho8J4judz+od/wCl&#xA;T1vyxpWvp9ahk9K6pT10Fa0/ZkU03H0EZLT6yeA8J3j3fqYa7svDqxxxNT7/ANY/BYhc/l/5iiYi&#xA;KOO4XsyOo/4nwzbQ7TwnmSPx5PN5fZ/UxOwEvcf1063/AC/8xykCSOOAeMkgP/EOeMu08I5En4fr&#xA;Rj9n9VLmBH3n9Vsn0HyRY6VIL29lE88XxKT8MUZH7W/UjxOa3U9oyyjhiKB+Zd/oOw8enPiZDxSH&#xA;yCt5u8utrtpBPZyKZ4QTFv8ABIj0OzD5bHIaHVeDIiQ2P2Nna/Zx1cIygRxR5dxBSPy15G1OLUob&#xA;vUVWCK3cSLGGVmZlNV+ySAK5m6vtGBgYw3JdV2Z2FljlE8vpETdc7PTkzdG9W/JX7NuhRj2LyFWp&#xA;/sQo+/NKRUfe9UDxZNv4RXxNfdX2orK292KuxVC3n1TmvPl9Yp+79Kvq0r/k/s18fh8ctx8VbcvP&#xA;l+PtcfNwXv8AV0rn/Z79kP8A7m9vS9Ph/wAvP95/yR+DJ/u+t/Dl9rV+/wD4ar+lz/2Oyon6Z4/H&#xA;9X5e3On45E+H/S+xmPH68H2qb/p/l8P1bhXenPnx9q/DX55IeF/S+xhL8z/Qr42irT0eT05fWNvV&#xA;9SnqU3pWm3HrTjt198rnfwb8XDZ/ndb5/wBnu25oZ/T5H6hz5VPL0uPo8vfn8PXrw38csF/xfbz/&#xA;AB72g1f7u/hXD9u3v4d2j/iKhp9Ur2/vcP7r+l9iP8J/2v8A2Thyp/p/r178K+lXvT0fip/r4/1K&#xA;/T9v6F3/AMpxfDl/sd/9Mu/e8T9R9X29evp19/U/ef8AA7ZHb+Kvhz+zZl6v8nf+dy+31fLZY3+I&#xA;e31T3p6lae1e+SHhf0vsYn8z/Q+1fF6PNfrnqerUcPX48OVduPD93yr0/ayMrr01Xl+L/Qyjw367&#xA;v+lVfCvTfd/Eibv0OK+pXnX9zw+3y/yafj2p12yuF9G7Nw0L59O/4fjlz2Qh/Tv+6vQ4fs+ty9T/&#xA;AGXp/DX5Zb+6638P2tB/MdOGvO7+NbfJXtOPqH1uX1vjvzp9nvwp8PGvhv0rkJ8tvp/HP8e5sw8/&#xA;VfH5/o6V9vK1159UqnrV9Xf0uHL1O1ePD4qePbxwY+Lpy+xlm4NuLn0rn9m/v+1DH9Ncv3HDh3+t&#xA;U5/R6Pw5Z+76/Z+1o/f/AMNV/S5/7HZc/wCneI4fVeVPir6lK+2AeF/S+xkfzHTg+1fBXnH9d/3p&#xA;r8Faenyp/uv/AJu+LBL+jy+34/imUOY8T6vs+H7d1S7+p809Svr0PpenX1ad6cd6ePbxyMOLpy+x&#xA;nm4LF/V0rn9nT7O9Df7m+X7n0/T/AOXn+8r/AM8fhplv7vrd+XL7Wj/CP4ar+lz/ANjs4/4hoafV&#xA;K9q+rg/df0vsU/mf6H+yVIOPrJ9br9b39PlThWm/pU28evxU9sjLl6fp/HP8U2Y/qHH9fTu/zfxx&#xA;V5Lrn6p6x48vrlP90f3ntz/Zp4c9sYcVf0fP8fcuXg4tvr/o8/j0/wBNsof7nuR9P0PS/Z9evq/7&#xA;L0/g+7J/uut35cvt3a/8I6cNf0uf2bN/7nqjn6Hp/tejy9T/AGPP4fvwfuul/Hl9i/4R14a8uf27&#xA;L4fqvqL9Z9T16/B9ZpTl248f3XL/AFd8EuKvTVeX4tlDgscd8X9L9Fem/dusNOT/AKLpy5Hn/wAs&#xA;/Ou9ad+teHf7WH+v+38e/wCCO/wf+O3+P5vXm0f0vX/SuPod/qlefvXnvSn8nxYf3f8ADz/pfj79&#xA;kHxv4/p/oc/t/Ruj7b0PQX6vT0t+NPnvX3r1r3yid3vzcrFw8I4eSpkWx2Kv/9k=</xmpGImg:image>
               </rdf:li>
            </rdf:Alt>
         </xmp:Thumbnails>
      </rdf:Description>
      <rdf:Description rdf:about=""
            xmlns:pdf="http://ns.adobe.com/pdf/1.3/">
         <pdf:Producer>Mac OS X 10.6.2 Quartz PDFContext</pdf:Producer>
      </rdf:Description>
      <rdf:Description rdf:about=""
            xmlns:xmpTPg="http://ns.adobe.com/xap/1.0/t/pg/"
            xmlns:stDim="http://ns.adobe.com/xap/1.0/sType/Dimensions#"
            xmlns:xmpG="http://ns.adobe.com/xap/1.0/g/">
         <xmpTPg:MaxPageSize rdf:parseType="Resource">
            <stDim:w>1.990743</stDim:w>
            <stDim:h>0.474535</stDim:h>
            <stDim:unit>Inches</stDim:unit>
         </xmpTPg:MaxPageSize>
         <xmpTPg:HasVisibleOverprint>False</xmpTPg:HasVisibleOverprint>
         <xmpTPg:HasVisibleTransparency>False</xmpTPg:HasVisibleTransparency>
         <xmpTPg:NPages>1</xmpTPg:NPages>
         <xmpTPg:PlateNames>
            <rdf:Seq>
               <rdf:li>Cyan</rdf:li>
               <rdf:li>Magenta</rdf:li>
               <rdf:li>Yellow</rdf:li>
               <rdf:li>Black</rdf:li>
            </rdf:Seq>
         </xmpTPg:PlateNames>
         <xmpTPg:SwatchGroups>
            <rdf:Seq>
               <rdf:li rdf:parseType="Resource">
                  <xmpG:groupName>Default Swatch Group</xmpG:groupName>
                  <xmpG:groupType>0</xmpG:groupType>
               </rdf:li>
            </rdf:Seq>
         </xmpTPg:SwatchGroups>
      </rdf:Description>
      <rdf:Description rdf:about=""
            xmlns:dc="http://purl.org/dc/elements/1.1/">
         <dc:format>image/svg+xml</dc:format>
      </rdf:Description>
      <rdf:Description rdf:about=""
            xmlns:xmpMM="http://ns.adobe.com/xap/1.0/mm/"
            xmlns:stEvt="http://ns.adobe.com/xap/1.0/sType/ResourceEvent#"
            xmlns:stRef="http://ns.adobe.com/xap/1.0/sType/ResourceRef#">
         <xmpMM:History>
            <rdf:Seq>
               <rdf:li rdf:parseType="Resource">
                  <stEvt:action>saved</stEvt:action>
                  <stEvt:instanceID>xmp.iid:F77F11740720681189D7F03C47306391</stEvt:instanceID>
                  <stEvt:when>2011-04-19T09:51:08-05:00</stEvt:when>
                  <stEvt:softwareAgent>Adobe Illustrator CS4</stEvt:softwareAgent>
                  <stEvt:changed>/</stEvt:changed>
               </rdf:li>
               <rdf:li rdf:parseType="Resource">
                  <stEvt:action>saved</stEvt:action>
                  <stEvt:instanceID>xmp.iid:F87F11740720681189D7F03C47306391</stEvt:instanceID>
                  <stEvt:when>2011-04-19T09:52:39-05:00</stEvt:when>
                  <stEvt:softwareAgent>Adobe Illustrator CS4</stEvt:softwareAgent>
                  <stEvt:changed>/</stEvt:changed>
               </rdf:li>
            </rdf:Seq>
         </xmpMM:History>
         <xmpMM:DerivedFrom rdf:parseType="Resource">
            <stRef:instanceID>xmp.iid:F77F11740720681189D7F03C47306391</stRef:instanceID>
            <stRef:documentID>xmp.did:F77F11740720681189D7F03C47306391</stRef:documentID>
            <stRef:originalDocumentID>uuid:116dd926-253b-3d41-b454-d83791891f47</stRef:originalDocumentID>
            <stRef:renditionClass>proof:pdf</stRef:renditionClass>
         </xmpMM:DerivedFrom>
         <xmpMM:OriginalDocumentID>uuid:116dd926-253b-3d41-b454-d83791891f47</xmpMM:OriginalDocumentID>
         <xmpMM:InstanceID>xmp.iid:F87F11740720681189D7F03C47306391</xmpMM:InstanceID>
         <xmpMM:DocumentID>xmp.did:F87F11740720681189D7F03C47306391</xmpMM:DocumentID>
         <xmpMM:RenditionClass>proof:pdf</xmpMM:RenditionClass>
      </rdf:Description>
   </rdf:RDF>
</x:xmpmeta>
                                                                                                    
                                                                                                    
                                                                                                    
                                                                                                    
                                                                                                    
                                                                                                    
                                                                                                    
                                                                                                    
                                                                                                    
                                                                                                    
                                                                                                    
                                                                                                    
                                                                                                    
                                                                                                    
                                                                                                    
                                                                                                    
                                                                                                    
                                                                                                    
                                                                                                    
                                                                                                    
                           
<?xpacket end="w"?>
	</metadata>
<path fill="#38CDFF" d="M227.23,52.462h2.377c1.662,0.392,3.208,1.384,4.246,2.77c0.785,1.154,1.062,2.538,1.339,3.876
	c2.238,0,4.5-0.046,6.738,0.093c1.685-0.116,3.023,1.039,4.569,1.477c1.846,0,3.877-0.692,5.584,0.3
	c1.523,0.692,2.516,2.123,3.323,3.53c1.177-1.869,2.678-4.016,5.123-4.062c3.023-0.669,5.954,1.385,7.107,4.108
	c0.808-1.224,1.57-2.607,2.908-3.323c1.454-0.924,3.23-0.809,4.87-0.831c0.114-1.338,0.068-2.769,0.669-4.015
	c0.83-1.961,2.699-3.3,4.685-3.923h2.561c1.085,0.392,2.055,1.085,3.186,1.315c1.153-0.277,2.169-0.969,3.3-1.315h2.101
	c1.846,0.438,3.461,1.615,4.592,3.116c1.13,1.892,0.877,4.246,1.199,6.323c1.224,0.023,2.447,0.023,3.692,0.023
	c0.37-2.585,0.162-5.608,2.216-7.569c1.062-0.9,2.354-1.523,3.716-1.893h2.123c1.73,0.416,3.3,1.454,4.407,2.839
	c1.292,1.892,0.899,4.292,1.131,6.461c2.677-0.022,5.4,0.462,7.685,1.962c1.199-0.785,2.4-1.639,3.738-2.238
	c3.023-1.131,6.369-1.131,9.531-0.601c2.723,0.53,5.077,2.123,7.084,3.97c1.27-1.107,2.516-2.238,3.993-3.069
	c3.577-1.73,7.707-1.362,11.562-1.107c2.861,0.438,5.03,3.253,4.915,6.092c0.276,2.815-1.823,5.607-4.546,6.254
	c-1.984,0.254-3.992,0.23-5.977,0.3c-0.324,3.255,0.83,7.062-1.408,9.854c-0.992,1.154-2.4,1.801-3.784,2.285h-2.378
	c-1.499-0.484-2.792-1.407-4.153-2.192c-1.985,1.131-4.154,1.823-6.416,2.192h-4.661c-2.377-0.416-4.546-1.569-6.623-2.746
	c-1.292,1.154-2.746,2.192-4.385,2.746h-6.068c-2.517-0.323-4.731-1.615-6.878-2.931c-1.407,1.131-2.861,2.308-4.592,2.931h-6.069
	c-2.769-0.369-5.262-1.8-7.385-3.554c-1.293,1.546-2.815,2.954-4.776,3.554h-2.377c-1.916-0.462-3.439-1.777-4.754-3.185
	c-2.031,1.5-4.27,2.7-6.762,3.185h-3.484c-1.523-0.347-2.954-1.107-4.478-1.361c-1.569,0.276-3,0.969-4.522,1.361h-3.462
	c-2.308-0.393-4.408-1.522-6.277-2.885c-1.361,1.154-2.723,2.492-4.523,2.885h-9.484c-5.769-0.854-10.777-5.677-11.377-11.562
	c-0.161-3.692-0.022-7.385-0.092-11.054c0.069-2.216-0.092-4.477,0.577-6.623C223.261,54.216,225.292,53.2,227.23,52.462z"/>
<path fill="#FDFEFF" d="M222.107,58.692c0.046-4.177,4.961-7.153,8.747-5.538c2.469,1.038,3.922,3.6,4.039,6.208
	c2.261,0.023,4.546-0.046,6.808,0.046c1.776-0.23,3.092,1.131,4.638,1.662c1.686-0.046,3.416-0.83,5.055-0.068
	c2.008,0.691,3.185,2.538,4.015,4.361c0.739-1.639,1.754-3.254,3.37-4.131c1.822-0.854,4.061-0.877,5.792,0.207
	c1.615,0.785,2.331,2.47,3.138,3.946c0.716-1.5,1.501-3.139,3.07-3.923c1.546-1.039,3.484-0.9,5.238-0.53
	c-0.023-1.432-0.438-3.001,0.3-4.316c1.062-2.354,3.577-4.154,6.23-3.923c1.431,0.207,2.724,0.854,3.946,1.615
	c1.546-0.83,3.185-1.822,5.008-1.546c1.915,0.138,3.53,1.454,4.685,2.908c1.293,1.869,0.738,4.339,0.969,6.461
	c1.569,0.046,3.139,0.046,4.708,0.115c0.069-2.354-0.161-5.076,1.454-7.015c2.146-3.023,7.084-3.393,9.554-0.554
	c2.123,1.823,1.707,4.892,1.823,7.384c2.815-0.161,5.723,0.277,7.914,2.123c3.647-3.207,8.84-4.107,13.479-2.953
	c2.746,0.508,5.054,2.261,7.015,4.177c1.315-1.362,2.677-2.792,4.454-3.554c3.3-1.432,6.969-1.154,10.454-1.038
	c3.161,0.346,5.562,3.507,5.285,6.623c-0.231,1.568-0.9,3.253-2.286,4.176c-2.237,2.055-5.561,1.201-8.284,1.432
	c-0.3,3.276,0.854,7.085-1.385,9.899c-1.684,1.985-4.707,2.931-7.13,1.777c-0.969-0.555-1.846-1.246-2.7-1.938
	c-3.577,2.192-7.984,2.931-12.092,2.169c-2.193-0.393-4.154-1.615-5.955-2.861c-1.199,1.361-2.653,2.793-4.546,3.022
	c-3.276,0.208-6.876,0.416-9.83-1.269c-1.108-0.555-2.077-1.293-3.047-2.031c-1.13,1.5-2.561,2.954-4.477,3.277
	c-2.446,0.276-4.915,0.254-7.339-0.207c-2.354-0.555-4.407-1.962-6.114-3.601c-1.362,2.262-3.692,4.223-6.462,3.923
	c-2.309-0.093-3.97-1.777-5.308-3.461c-2.332,1.984-5.216,3.438-8.331,3.438c-2.309,0.393-4.339-0.923-6.462-1.453
	c-1.961,0.369-3.738,1.522-5.77,1.453c-3.207,0.323-6.207-1.199-8.653-3.138c-1.131,1.199-2.262,2.746-4.038,2.953
	c-2.585,0.416-5.238,0.254-7.847,0.254c-6.37,0.185-12.438-5.076-13.015-11.423C221.946,68.777,222.062,63.724,222.107,58.692z"/>
<path fill="#38CDFF" d="M227.785,55.831c1.662-0.484,3.646,0.715,3.9,2.446c0.115,1.361,0.115,2.746,0.139,4.107
	c3.438,0.023,6.9-0.115,10.338,0.046c1.293,0.208,2.492,1.247,2.654,2.585c0.508,1.685-0.808,3.669-2.516,3.946
	c-3.508,0.277-7.038,0.069-10.569,0.115c0.046,1.292-0.023,2.585,0.138,3.854c0.23,1.223,1.27,2.354,2.539,2.492
	c2.654,0.23,5.308,0,7.938,0.208c2.285,0.346,3.416,3.484,1.87,5.191c-0.831,1.477-2.677,1.431-4.132,1.431
	c-2.677-0.046-5.446,0.323-8.054-0.484c-3.946-1.2-6.922-5.1-6.9-9.23c-0.138-4.223-0.046-8.47-0.046-12.692
	C224.808,58.093,225.961,56.108,227.785,55.831z"/>
<path fill="#38CDFF" d="M281.484,55.785c2.354-0.623,4.662,2.008,3.831,4.292c-0.508,2.308-3.785,3.115-5.377,1.454
	C277.838,59.985,278.9,56.108,281.484,55.785z"/>
<path fill="#38CDFF" d="M288.592,56.662c1.501-1.615,4.546-0.992,5.308,1.062c0.347,2.446,0.162,4.938,0.208,7.407
	c2.331,0.023,4.661-0.093,6.993,0.185c1.568,0.37,2.884,1.985,2.561,3.67c-0.046,1.638-1.684,3.046-3.346,2.815
	c-1.984,0.115-3.97,0.068-5.954,0.092c0.231,1.108,0.277,2.7,1.5,3.254c2.146,0.854,4.754-0.185,6.762,1.085
	c0.761,0.923,1.315,2.1,1.016,3.3c-0.323,1.73-2.101,2.815-3.785,2.677c-4.016,0.485-8.931-0.716-10.638-4.822
	c-2.031-5.009-1.823-10.616-1.847-15.924C287.508,59.87,287.139,57.77,288.592,56.662z"/>
<path fill="#38CDFF" d="M305.899,56.662c1.085-0.807,2.7-1.292,3.946-0.577c0.738,0.461,1.5,1.107,1.639,2.008
	c0.254,2.354,0.139,4.708,0.161,7.038c2.332,0.023,4.662-0.093,6.993,0.185c1.523,0.324,2.746,1.847,2.584,3.462
	c-0.185,1.339-0.992,2.792-2.492,2.977c-2.262,0.186-4.523,0.093-6.784,0.093c0.161,1.062,0.069,2.516,1.131,3.161
	c2.376,1.246,5.723-0.484,7.568,1.893c1.339,1.846,0.277,4.569-1.823,5.146c-3.807,0.646-8.376,0.253-11.054-2.885
	c-1.938-2.538-2.261-5.839-2.653-8.885c-0.208-3.323-0.53-6.646-0.254-9.97C304.815,59.016,305.138,57.7,305.899,56.662z"/>
<path fill="#38CDFF" d="M248.461,63.724c1.478-0.531,3.047,0.554,3.692,1.823c0.324,2.469,0.047,4.961,0.186,7.454
	c0.139,1.707,1.8,3.276,3.576,2.884c1.178-0.092,2.124-1.107,2.308-2.238c0.185-2.354,0.023-4.73,0.115-7.107
	c0.162-1.385,1.293-2.608,2.654-2.885c1.015-0.277,2.008,0.323,2.815,0.854c1.892,2.747,0.462,6.323,1.062,9.37
	c0.347,1.015,1.177,1.938,2.308,2.007c1.662,0.347,3.692-1.062,3.323-2.884c0.23-2.47-0.323-5.055,0.438-7.454
	c0.6-1.432,2.469-2.446,3.945-1.708c0.993,0.415,1.87,1.269,1.985,2.377c0.254,2.469,0.23,4.962,0.092,7.454
	c-0.346,4.592-4.546,8.607-9.185,8.538c-2.307,0.139-4.431-0.946-6.23-2.238c-1.5,0.899-2.977,1.938-4.754,2.123
	c-4.431,0.784-9.115-2.192-10.292-6.531c-0.623-2.723-0.462-5.562-0.393-8.331C245.992,65.754,246.846,63.931,248.461,63.724z"/>
<path fill="#38CDFF" d="M327.777,64.485c3.853-1.247,8.469-0.946,11.699,1.661c2.054,1.661,3.254,4.385,2.77,7.016
	c-0.347,1.13-1.639,1.569-2.723,1.615c-3.508,0.208-7.039,0-10.547,0.139c0.992,2.054,3.623,2.215,5.607,1.869
	c1.731-0.323,3.208-1.661,5.031-1.339c1.315,0.115,2.169,1.755,1.593,2.885c-0.831,1.962-2.908,3.023-4.893,3.416
	c-3.484,0.899-7.5,0.761-10.361-1.615c-3.416-2.309-4.593-7.108-3.069-10.847C323.738,67.069,325.538,65.246,327.777,64.485z"/>
<path fill="#38CDFF" d="M351.408,63.908c1.961-0.208,3.945-0.23,5.907-0.139c1.961,0.069,3.623,2.331,2.815,4.177
	c-0.485,0.854-1.154,1.823-2.216,1.916c-1.892,0.161-3.784,0.092-5.677,0.207c-1.224,0.093-2.262,1.062-2.446,2.284
	c-0.185,2.285-0.022,4.593-0.115,6.9c-0.092,1.916-2.308,3.601-4.154,2.793c-0.854-0.485-1.823-1.178-1.938-2.216
	c-0.23-2.654-0.23-5.308-0.022-7.962C343.885,67.854,347.392,64.277,351.408,63.908z"/>
<path fill="#38CDFF" d="M281.716,64.808c1.707-0.322,3.484,1.062,3.691,2.747c0.277,3.807,0.208,7.638,0.093,11.445
	c-0.093,1.5-1.293,2.908-2.815,3.116c-1.962,0.507-4.062-1.339-3.784-3.347c-0.093-3.831-0.162-7.661,0.046-11.492
	C279.107,65.893,280.423,64.97,281.716,64.808z"/>
<path fill="#FDFEFF" d="M329.046,70.438c1.247-2.538,5.516-2.584,6.808-0.069C333.592,70.462,331.308,70.484,329.046,70.438z"/>
</svg>
